# xmcd CD database file
#
# Track frame offsets:
#	150
#	15848
#	30475
#	46492
#	67187
#	89230
#	101660
#	113238
#	129023
#	140745
#	152500
#	164505
#	176773
#	185513
#	204099
#	216027
#	228717
#
# Disc length: 3263 seconds
#
# Revision: 0
# Processed by: cddbd v1.5.2PL0 Copyright (c) Steve Scherf et al.
# Submitted via: CDex 1.51
#
DISCID=eb0cbd11
DTITLE=Sarah Vaughan - Sings George Gershwin - CD 2
DYEAR=1957
DGENRE=Jazz
TTITLE0=Of Thee I Sing (Stereo LP Take)
TTITLE1=Summertime (Alternative Take)
TTITLE2=I Won't Say I Will (Alternative Take)
TTITLE3=My One And Only (Alternative Take)
TTITLE4=Embraceable You (Studio Version)
TTITLE5=They Can't Take That Away From Me
TTITLE6='S Wonderful
TTITLE7=But Not For Me
TTITLE8=Soon
TTITLE9=Maybe
TTITLE10=Fascinating Rhythm
TTITLE11=Blah Blah Blah
TTITLE12=I Got Rhythm
TTITLE13=The Man I Love
TTITLE14=Nice Work If You Can Get It
TTITLE15=Embraceable You (Live Version)
TTITLE16=The Man I Love (Live Version)
EXTD=YEAR: 1957
EXTT0=
EXTT1=
EXTT2=
EXTT3=
EXTT4=
EXTT5=
EXTT6=
EXTT7=
EXTT8=
EXTT9=
EXTT10=
EXTT11=
EXTT12=
EXTT13=
EXTT14=
EXTT15=
EXTT16=
PLAYORDER=
